<?xml version="1.0" encoding="UTF-8"?>
<!DOCTYPE svg PUBLIC "-//W3C//DTD SVG 1.0//EN" "http://www.w3.org/TR/2001/REC-SVG-20010904/DTD/svg10.dtd">
<!-- Creator: CorelDRAW -->
<svg xmlns="http://www.w3.org/2000/svg" xml:space="preserve" width="561px" height="263px" version="1.0" shape-rendering="geometricPrecision" text-rendering="geometricPrecision" image-rendering="optimizeQuality" fill-rule="evenodd" clip-rule="evenodd"
viewBox="0 0 254.77 119.56"
 xmlns:xlink="http://www.w3.org/1999/xlink"
 xmlns:xodm="http://www.corel.com/coreldraw/odm/2003">
 <g id="Layer_x0020_1">
  <metadata id="CorelCorpID_0Corel-Layer"/>
  <g id="_2534534377728">
   <g>
    <path fill="#FEFEFE" fill-rule="nonzero" d="M97.05 86.13l-13.56 0 -1.46 -1.46 0 -1.46 10.6 0 1.63 -1.63 0 -22.83 5.88 0 0 24.29 -3.09 3.09zm32.04 0l-13.86 0 -7.51 -7.51 0 -16.78 3.09 -3.09 13.56 0 7.64 7.64 0 16.82 -2.92 2.92zm-15.15 -4.42l1.46 1.5 9.14 0 1.46 -1.5 0 -18.41 -1.46 -1.46 -9.14 0 -1.46 1.46 0 18.41zm39.34 4.42l-3.09 0 -10.6 -10.6 0 -16.78 6.05 0 0 16.94 6 6 6.23 -6.16 0 -16.78 6.01 0 0 16.78 -10.6 10.6zm39.38 0l-21.2 0 0 -27.38 13.56 0 1.63 1.63 0 1.46 -8.97 0 0 9.14 10.43 0 1.46 1.46 0 1.63 -11.89 0 0 9.14 13.69 0 1.29 1.29 0 1.63zm12.17 0l-6.22 0 0 -27.38 16.65 0 7.64 7.64 0 19.74 -6.01 0 0 -22.83 -1.46 -1.46 -10.6 0 0 24.29zm46.85 0l-21.2 0 0 -6.05 6.05 0 0 3.13 10.77 0 1.46 -1.5 0 -7.64 -18.28 0 0 -12.23 3.09 -3.09 21.2 0 0 5.83 -6.01 0 0 -2.74 -10.6 0 -1.46 1.46 0 7.68 18.07 0 0 12.06 -3.09 3.09z"/>
    <path fill="#FEFEFE" fill-rule="nonzero" d="M91.89 109.12l-9.82 0 0 -3.17 2.8 0 0 1.64 4.99 0 0.68 -0.79 0 -4.01 -8.47 0 0 -6.42 1.43 -1.63 9.82 0 0 3.07 -2.78 0 0 -1.44 -4.91 0 -0.68 0.76 0 4.04 8.37 0 0 6.33 -1.43 1.62zm14.44 0l-7.09 0 -1.37 -1.53 0 -8.07 -2.03 0 0 -0.58 0.89 -1.04 1.08 0 0 -3.16 2.78 0 0 3.16 5.67 0 0 0.61 -0.84 0.94 -4.75 0 0 7.29 0.75 0.85 2.73 0 0.75 -0.85 0 -2.42 2.79 0 0 3.27 -1.36 1.53zm15.8 0l-9.96 0 -1.37 -1.53 0 -4.8 1.43 -1.62 7.18 0 -1.51 -1.72 -4.97 0 -0.7 -0.79 0 -0.76 8.39 0 1.51 1.71 0 9.51zm-7.69 -1.53l4.81 0 0 -4.8 -4.81 0 -0.76 0.86 0 3.09 0.76 0.85zm13.53 1.53l-2.8 0 0 -3.17 2.8 0 0 3.17zm16.79 0l-2.78 0 0 -12.75 -4.23 0 0 -1.63 11.17 0 0 1.63 -4.16 0 0 12.75zm16.42 0l-8.45 0 -1.37 -1.53 0 -8.14 1.37 -1.55 8.45 0 1.43 1.62 0 4.71 -8.37 0 0 2.51 0.76 0.85 4.07 0 0.76 -0.85 0 -0.79 2.78 0 0 1.55 -1.43 1.62zm-6.94 -8.81l0 2.48 5.59 0 0 -2.48 -0.68 -0.79 -4.23 0 -0.68 0.79zm14.37 8.81l-2.88 0 0 -11.22 8.39 0 1.51 1.71 0 3.18 -2.81 0 0 -2.41 -0.75 -0.86 -3.46 0 0 9.6zm19.87 0l-8.45 0 -1.37 -1.53 0 -8.14 1.37 -1.55 8.45 0 1.43 1.62 0 4.71 -8.37 0 0 2.51 0.76 0.85 4.07 0 0.76 -0.85 0 -0.79 2.78 0 0 1.55 -1.43 1.62zm-6.94 -8.81l0 2.48 5.59 0 0 -2.48 -0.68 -0.79 -4.23 0 -0.68 0.79zm22.07 8.81l-11.26 0 0 -0.76 7.86 -8.91 -7.18 0 0 -0.7 0.75 -0.85 11.26 0 0 0.85 -7.78 8.84 7.02 0 0 0.77 -0.67 0.76zm7.34 0l-2.8 0 0 -11.22 2.8 0 0 11.22zm0 -12.75l-2.8 0 0 -1.63 2.8 0 0 1.63zm6.6 12.75l-2.88 0 0 -11.22 9.82 0 1.43 1.62 0 9.6 -2.79 0 0 -8.74 -0.75 -0.86 -4.83 0 0 9.6zm14.37 0l-2.89 0 0 -14.38 2.81 0 0 3.16 7.01 0 1.44 1.62 0 9.6 -2.79 0 0 -8.81 -0.67 -0.79 -4.91 0 0 9.6zm22.81 0l-9.96 0 -1.37 -1.53 0 -4.8 1.43 -1.62 7.18 0 -1.51 -1.72 -4.97 0 -0.7 -0.79 0 -0.76 8.39 0 1.51 1.71 0 9.51zm-7.7 -1.53l4.82 0 0 -4.8 -4.82 0 -0.75 0.86 0 3.09 0.75 0.85z"/>
   </g>
   <g>
    <g>
     <path fill="#FEFEFE" d="M34.75 84.39l-1.53 -20.37 -14.65 -14.45 2.19 21.34 13.99 13.48zm3.22 -39.95l-6.65 3.01 7.25 4.57 -0.6 -7.58zm-3.12 40.98l3.75 -2.82 0 34.71 -3.75 2.25 0 -34.14zm-11.16 -37.33l7.1 10.72 8.14 -2.35 -8.03 -7.14 -7.21 -1.23zm16.39 0.1l10.82 1.69 -8.75 6.05 -2.07 -7.74zm-1.76 32.89l-3.97 -21.21 16.4 -5.11 -3.5 17.83 -8.93 8.49z"/>
     <path fill="#FEFEFE" d="M34.21 101.58l-8.66 -10.35 -12.69 0.08 7.33 10.43 14.02 -0.16zm20.47 -17.22l-6.21 7.42 -9.08 -0.07 5.25 -7.46 10.04 0.11z"/>
    </g>
    <path fill="#FEFEFE" fill-rule="nonzero" d="M57.37 0.47l0 41.54 -57.37 0 0 -3.73 53.61 0 0 -38.28 3.76 0 0 0.47zm3.39 118.62l0 -73.97 57.37 0 0 3.63 -53.61 0 0 70.81 -3.76 0 0 -0.47z"/>
   </g>
  </g>
 </g>
</svg>
